<svg width="141" height="25" viewBox="0 0 141 25" fill="none" xmlns="http://www.w3.org/2000/svg">
<path d="M3.34659 22.1584C3.56919 22.0387 3.67845 22.0572 3.75882 21.9809C7.25181 18.4814 11.2604 15.6538 15.1782 12.6983C19.2238 9.6521 23.2694 6.606 27.6635 4.0235C30.1451 2.6456 32.641 1.3151 35.3722 0.586402C36.1926 0.388202 37.0749 0.223001 37.9675 0.261901C39.7383 0.292201 40.8354 1.5122 40.7103 3.3119C40.6755 4.0478 40.4841 4.7797 40.1833 5.4931C39.7467 6.6106 39.1863 7.6621 38.6878 8.7466C38.4386 9.2889 38.1893 9.8311 38.0019 10.4063C37.6746 11.5423 38.0953 12.2431 39.1839 12.5849C40.2725 12.9267 41.3877 12.8459 42.4596 12.6229C44.0056 12.2554 45.3411 11.5376 46.6334 10.6775C49.4734 8.7759 52.0557 6.5383 54.2708 3.9462C55.192 2.8884 56.1275 1.878 57.0631 0.867499C57.3701 0.514899 57.8009 0.228199 58.2131 0.0507993C58.4357 -0.0689007 58.9346 0.0382016 59.0398 0.213302C59.2068 0.421502 59.1328 0.858501 59.1246 1.1719C59.1061 1.2812 58.9783 1.3719 58.898 1.4482C57.505 3.168 56.0791 4.9496 54.5295 6.6652C51.9454 9.5769 48.9798 12.0867 45.5131 13.9721C43.8601 14.8385 42.106 15.373 40.2444 15.2149C39.3992 15.1616 38.5106 14.9661 37.7354 14.6324C35.9375 13.8332 35.1041 12.1183 35.5611 10.2175C35.7896 9.2671 36.2366 8.3537 36.6362 7.4548C37.0729 6.3373 37.5714 5.2528 38.0225 4.1828C38.1399 3.8879 38.1191 3.4798 38.1746 3.152C37.5561 2.8223 37.0161 3.0905 36.4801 3.202C33.5738 4.0359 30.8737 5.3768 28.3366 7.0825C23.0873 10.5991 17.9143 14.1961 12.7268 17.7456C10.7153 19.1358 8.68931 20.4785 6.50263 21.9738C6.87781 22.0149 7.09631 22.0519 7.36231 22.0745C8.34971 22.0845 9.32271 22.047 10.3246 22.1044C10.7472 22.1311 11.1843 22.2051 11.6028 22.3885C12.0688 22.5573 12.3555 22.9881 12.1866 23.454C12.0836 23.7963 11.7622 24.1015 11.4592 24.2974C11.1562 24.4934 10.7955 24.4997 10.4347 24.506C7.62501 24.6368 4.8297 24.8151 2.00552 24.8985C0.562503 24.9238 -0.229407 24.0252 0.0587034 22.5904C0.188313 21.8255 0.460143 21.0173 0.884583 20.3699C2.31232 17.9142 3.84933 15.477 5.40079 13.0872C5.67893 12.6398 6.11374 12.1964 6.53004 11.8623C7.04121 11.4993 7.53601 11.763 7.41051 12.3712C7.24791 13.1979 7.05241 14.0865 6.67131 14.8761C5.82463 16.6884 4.9017 18.4204 4.04061 20.1853C3.82433 20.6657 3.5936 21.0987 3.37731 21.5791C3.42065 21.7213 3.41658 21.878 3.34659 22.1584Z" fill="white"/>
<path d="M74.6244 13.4975C74.0831 13.4975 73.5371 13.4275 72.9864 13.2875C72.4358 13.1381 71.9364 12.9515 71.4884 12.7275C71.3391 13.2595 71.1991 13.8428 71.0684 14.4775C70.9378 15.1121 70.8164 15.7935 70.7044 16.5215C70.6018 17.0441 70.4991 17.3848 70.3964 17.5435C70.2938 17.7021 70.1631 17.7815 70.0044 17.7815C69.8458 17.7815 69.7198 17.7068 69.6264 17.5575C69.5331 17.3988 69.4864 17.1048 69.4864 16.6755C69.4864 16.5915 69.5098 16.3955 69.5564 16.0875C69.6031 15.7795 69.6638 15.4015 69.7384 14.9535C69.8224 14.4961 69.9111 14.0061 70.0044 13.4835C70.0978 12.9515 70.1911 12.4195 70.2844 11.8875C70.0604 11.6448 69.9484 11.4161 69.9484 11.2015C69.9484 11.0988 69.9764 11.0008 70.0324 10.9075C70.0884 10.8048 70.2051 10.7535 70.3824 10.7535C70.4104 10.7535 70.4431 10.7581 70.4804 10.7675C70.5831 10.2075 70.6671 9.70813 70.7324 9.26946C70.8071 8.82146 70.8491 8.49946 70.8584 8.30346C70.8771 7.96746 70.9424 7.73413 71.0544 7.60346C71.1664 7.46346 71.2971 7.39346 71.4464 7.39346C71.5678 7.39346 71.6658 7.4448 71.7404 7.54746C71.8151 7.6408 71.8524 7.8788 71.8524 8.26146C71.8524 8.50413 71.8338 8.8308 71.7964 9.24146C72.2538 8.30813 72.7298 7.64546 73.2244 7.25346C73.7284 6.86146 74.2884 6.66546 74.9044 6.66546C75.4644 6.66546 75.9451 6.81946 76.3464 7.12746C76.7478 7.42613 77.0558 7.8508 77.2704 8.40146C77.4851 8.95213 77.5924 9.6008 77.5924 10.3475C77.5924 11.4021 77.3358 12.1908 76.8224 12.7135C76.3091 13.2361 75.5764 13.4975 74.6244 13.4975ZM71.8524 11.5655C72.2071 11.7708 72.6038 11.9621 73.0424 12.1395C73.4811 12.3075 73.9338 12.3915 74.4004 12.3915C75.1564 12.3915 75.7071 12.2235 76.0524 11.8875C76.4071 11.5421 76.5844 10.9868 76.5844 10.2215C76.5844 9.3348 76.4444 8.7048 76.1644 8.33146C75.8844 7.95813 75.5018 7.77146 75.0164 7.77146C74.4658 7.77146 73.9151 8.07946 73.3644 8.69546C72.8138 9.30213 72.3098 10.2588 71.8524 11.5655ZM81.6331 18.5095C80.9144 18.5095 80.3497 18.2761 79.9391 17.8095C79.5377 17.3335 79.3371 16.6708 79.3371 15.8215C79.3371 15.2988 79.4071 14.6875 79.5471 13.9875C79.6964 13.2781 79.8831 12.5315 80.1071 11.7475C80.3404 10.9541 80.5924 10.1701 80.8631 9.39546C81.1337 8.6208 81.3951 7.90213 81.6471 7.23946C81.9084 6.56746 82.1371 6.00746 82.3331 5.55946C82.4451 5.30746 82.6037 5.18146 82.8091 5.18146C83.0891 5.18146 83.2291 5.35413 83.2291 5.69946C83.2291 5.81146 83.1777 6.04013 83.0751 6.38546C82.9724 6.7308 82.8371 7.16013 82.6691 7.67346C82.5011 8.17746 82.3191 8.73746 82.1231 9.35346C81.9271 9.96946 81.7264 10.6041 81.5211 11.2575C81.3251 11.9015 81.1431 12.5408 80.9751 13.1755C80.8071 13.8008 80.6717 14.3888 80.5691 14.9395C80.4664 15.4901 80.4151 15.9615 80.4151 16.3535C80.4151 16.6055 80.4804 16.8061 80.6111 16.9555C80.7511 17.0955 80.9377 17.1655 81.1711 17.1655C81.6004 17.1655 82.0297 17.0815 82.4591 16.9135C82.8977 16.7361 83.3177 16.5215 83.7191 16.2695C84.1204 16.0081 84.4844 15.7515 84.8111 15.4995C85.1471 15.2381 85.4317 15.0235 85.6651 14.8555C85.8984 14.6781 86.0617 14.5895 86.1551 14.5895C86.3604 14.5895 86.4631 14.7015 86.4631 14.9255C86.4631 15.0001 86.3884 15.1401 86.2391 15.3455C86.0897 15.5415 85.8891 15.7748 85.6371 16.0455C85.3851 16.3161 85.0911 16.5961 84.7551 16.8855C84.4284 17.1655 84.0831 17.4315 83.7191 17.6835C83.3644 17.9261 83.0051 18.1221 82.6411 18.2715C82.2864 18.4301 81.9504 18.5095 81.6331 18.5095ZM86.3427 18.3135C85.988 18.3135 85.694 18.1501 85.4607 17.8235C85.2367 17.4875 85.1247 17.0535 85.1247 16.5215C85.1247 16.0268 85.246 15.5368 85.4887 15.0515C85.7407 14.5661 86.072 14.0995 86.4827 13.6515C86.8933 13.2035 87.3413 12.7928 87.8267 12.4195C88.312 12.0368 88.7973 11.7055 89.2827 11.4255C89.7773 11.1455 90.23 10.9261 90.6407 10.7675C91.0513 10.6088 91.378 10.5295 91.6207 10.5295C91.7513 10.5295 91.8587 10.5575 91.9427 10.6135C92.0267 10.6601 92.0687 10.7488 92.0687 10.8795C92.0687 10.9635 92.036 11.0428 91.9707 11.1175C91.98 11.1175 91.9893 11.1175 91.9987 11.1175C92.204 11.1175 92.3067 11.2388 92.3067 11.4815C92.3067 11.5655 92.274 11.7381 92.2087 11.9995C92.1433 12.2515 92.0687 12.5688 91.9847 12.9515C91.9007 13.3341 91.826 13.7588 91.7607 14.2255C91.6953 14.6828 91.6627 15.1495 91.6627 15.6255C91.6627 16.0268 91.8167 16.2275 92.1247 16.2275C92.47 16.2275 92.82 16.1481 93.1747 15.9895C93.5293 15.8308 93.8747 15.6395 94.2107 15.4155C94.5467 15.1821 94.8547 14.9535 95.1347 14.7295C95.4147 14.4961 95.6527 14.3001 95.8487 14.1415C96.0447 13.9828 96.1847 13.9035 96.2687 13.9035C96.3433 13.9035 96.4087 13.9268 96.4647 13.9735C96.5207 14.0201 96.5487 14.0948 96.5487 14.1975C96.5487 14.2908 96.4553 14.4588 96.2687 14.7015C96.082 14.9441 95.8347 15.2195 95.5267 15.5275C95.2187 15.8355 94.8733 16.1341 94.4907 16.4235C94.108 16.7128 93.716 16.9508 93.3147 17.1375C92.9133 17.3241 92.5307 17.4175 92.1667 17.4175C91.8867 17.4175 91.63 17.3335 91.3967 17.1655C91.1727 16.9881 90.9907 16.6895 90.8507 16.2695C90.72 15.8495 90.6547 15.2708 90.6547 14.5335V14.1835C90.1973 14.9395 89.7167 15.6301 89.2127 16.2555C88.718 16.8808 88.2233 17.3801 87.7287 17.7535C87.2433 18.1268 86.7813 18.3135 86.3427 18.3135ZM91.3547 11.5375C91.308 11.5561 91.2427 11.5841 91.1587 11.6215C90.7293 11.8175 90.2813 12.0601 89.8147 12.3495C89.3573 12.6388 88.9093 12.9608 88.4707 13.3155C88.0413 13.6701 87.654 14.0388 87.3087 14.4215C86.9633 14.8041 86.688 15.1915 86.4827 15.5835C86.2773 15.9755 86.1747 16.3581 86.1747 16.7315C86.1747 16.8528 86.198 16.9461 86.2447 17.0115C86.3007 17.0768 86.394 17.1095 86.5247 17.1095C86.7113 17.1095 86.954 16.9928 87.2527 16.7595C87.5513 16.5168 87.878 16.1995 88.2327 15.8075C88.5967 15.4155 88.9607 14.9815 89.3247 14.5055C89.6887 14.0295 90.034 13.5488 90.3607 13.0635C90.6967 12.5781 90.986 12.1301 91.2287 11.7195C91.266 11.6541 91.308 11.5935 91.3547 11.5375ZM96.9271 21.5475C96.4604 21.5475 96.0311 21.5148 95.6391 21.4495C95.2564 21.3935 94.8784 21.3001 94.5051 21.1695C94.1318 21.0481 93.7258 20.8895 93.2871 20.6935C93.1564 20.6281 93.0398 20.5488 92.9371 20.4555C92.8344 20.3715 92.7831 20.2735 92.7831 20.1615C92.7831 20.0215 92.8718 19.8721 93.0491 19.7135C93.2171 19.5641 93.3758 19.4895 93.5251 19.4895C93.6838 19.4895 93.8798 19.5455 94.1131 19.6575C94.3558 19.7695 94.6358 19.9001 94.9531 20.0495C95.2704 20.2081 95.6204 20.3435 96.0031 20.4555C96.3951 20.5675 96.8151 20.6235 97.2631 20.6235C97.7484 20.6235 98.2058 20.4228 98.6351 20.0215C99.0644 19.6201 99.4144 19.0415 99.6851 18.2855C99.9558 17.5388 100.091 16.6381 100.091 15.5835C100.091 15.2661 100.082 14.9161 100.063 14.5335C100.054 14.1415 100.035 13.7308 100.007 13.3015C99.7831 13.7868 99.5311 14.2675 99.2511 14.7435C98.9804 15.2195 98.6958 15.6488 98.3971 16.0315C98.1078 16.4141 97.8044 16.7221 97.4871 16.9555C97.1791 17.1795 96.8664 17.2915 96.5491 17.2915C96.1478 17.2915 95.8584 17.1888 95.6811 16.9835C95.5038 16.7781 95.4151 16.4608 95.4151 16.0315C95.4151 15.5835 95.4478 15.0981 95.5131 14.5755C95.5784 14.0528 95.6624 13.5255 95.7651 12.9935C95.8771 12.4521 96.0078 11.9388 96.1571 11.4535C96.3064 10.9681 96.4651 10.5481 96.6331 10.1935C96.7264 10.0068 96.8664 9.91346 97.0531 9.91346C97.1838 9.91346 97.3098 9.98346 97.4311 10.1235C97.5618 10.2541 97.6271 10.4268 97.6271 10.6415C97.6271 10.8095 97.5898 11.0475 97.5151 11.3555C97.4404 11.6635 97.3471 12.0135 97.2351 12.4055C97.1231 12.7975 97.0111 13.2081 96.8991 13.6375C96.7871 14.0575 96.6938 14.4728 96.6191 14.8835C96.5444 15.2848 96.5071 15.6535 96.5071 15.9895C96.5071 16.1295 96.6004 16.1995 96.7871 16.1995C96.8898 16.1995 97.0344 16.1061 97.2211 15.9195C97.4171 15.7235 97.6318 15.4715 97.8651 15.1635C98.1078 14.8461 98.3504 14.5008 98.5931 14.1275C98.8451 13.7448 99.0878 13.3668 99.3211 12.9935C99.5544 12.6108 99.7551 12.2608 99.9231 11.9435C99.9138 11.8688 99.9091 11.7988 99.9091 11.7335C99.9091 11.6681 99.9091 11.6075 99.9091 11.5515C99.9091 11.0941 99.9558 10.8095 100.049 10.6975C100.152 10.5761 100.282 10.5155 100.441 10.5155C100.712 10.5155 100.903 10.5761 101.015 10.6975C101.127 10.8188 101.183 11.0288 101.183 11.3275C101.183 11.4395 101.169 11.5608 101.141 11.6915C101.113 11.8128 101.066 11.9901 101.001 12.2235C101.076 12.9608 101.136 13.6235 101.183 14.2115C101.239 14.7995 101.267 15.3921 101.267 15.9895C101.267 17.1188 101.085 18.0988 100.721 18.9295C100.366 19.7601 99.8624 20.4041 99.2091 20.8615C98.5651 21.3188 97.8044 21.5475 96.9271 21.5475ZM116.472 18.7895C116.267 18.7895 116.094 18.7101 115.954 18.5515C115.823 18.3928 115.758 18.1315 115.758 17.7675C115.758 17.6461 115.772 17.5155 115.8 17.3755C115.828 17.2261 115.879 17.0768 115.954 16.9275C115.487 15.7701 115.095 14.6455 114.778 13.5535C114.461 12.4615 114.19 11.3181 113.966 10.1235C113.667 10.7395 113.383 11.3788 113.112 12.0415C112.851 12.6948 112.603 13.3341 112.37 13.9595C112.137 14.5848 111.927 15.1681 111.74 15.7095C111.553 16.2508 111.39 16.7175 111.25 17.1095C111.101 17.5761 110.951 17.8888 110.802 18.0475C110.653 18.2155 110.499 18.2995 110.34 18.2995C110.125 18.2995 109.962 18.2481 109.85 18.1455C109.747 18.0428 109.696 17.8608 109.696 17.5995C109.696 17.4035 109.747 17.1001 109.85 16.6895C109.953 16.2788 110.093 15.8028 110.27 15.2615C110.457 14.7201 110.667 14.1508 110.9 13.5535C111.133 12.9561 111.381 12.3728 111.642 11.8035C111.913 11.2341 112.183 10.7208 112.454 10.2635C112.725 9.7968 112.981 9.42813 113.224 9.15746C113.476 8.87746 113.705 8.73746 113.91 8.73746C114.125 8.73746 114.307 8.77946 114.456 8.86346C114.615 8.94746 114.787 9.1668 114.974 9.52146C115.095 9.76413 115.235 10.1188 115.394 10.5855C115.553 11.0428 115.711 11.5608 115.87 12.1395C116.029 12.7088 116.183 13.2968 116.332 13.9035C116.481 14.5008 116.612 15.0561 116.724 15.5695C117.097 13.8428 117.424 12.3308 117.704 11.0335C117.984 9.7268 118.199 8.7048 118.348 7.96746C118.507 7.23013 118.591 6.8428 118.6 6.80546C118.656 6.5628 118.717 6.41346 118.782 6.35746C118.847 6.30146 118.941 6.27346 119.062 6.27346C119.23 6.27346 119.393 6.34346 119.552 6.48346C119.72 6.61413 119.804 6.79613 119.804 7.02946C119.804 7.14146 119.776 7.39813 119.72 7.79946C119.673 8.2008 119.599 8.7048 119.496 9.31146C119.403 9.9088 119.281 10.5761 119.132 11.3135C118.983 12.0415 118.81 12.8021 118.614 13.5955C118.418 14.3795 118.199 15.1588 117.956 15.9335C117.723 16.6988 117.466 17.4221 117.186 18.1035C117.083 18.3648 116.962 18.5421 116.822 18.6355C116.691 18.7381 116.575 18.7895 116.472 18.7895ZM123.47 18.0895C122.919 18.0895 122.485 17.8795 122.168 17.4595C121.85 17.0395 121.692 16.4935 121.692 15.8215C121.692 15.5788 121.724 15.3221 121.79 15.0515C121.864 14.7715 121.958 14.5195 122.07 14.2955C122.004 14.2301 121.953 14.1415 121.916 14.0295C121.878 13.9081 121.86 13.7588 121.86 13.5815C121.86 13.0308 121.953 12.5268 122.14 12.0695C122.326 11.6121 122.574 11.2155 122.882 10.8795C123.19 10.5341 123.53 10.2681 123.904 10.0815C124.286 9.8948 124.674 9.80146 125.066 9.80146C125.71 9.80146 126.232 10.0348 126.634 10.5015C127.035 10.9588 127.236 11.6588 127.236 12.6015C127.236 13.0961 127.161 13.6001 127.012 14.1135C126.872 14.6268 126.676 15.1215 126.424 15.5975C126.181 16.0735 125.896 16.4981 125.57 16.8715C125.252 17.2448 124.912 17.5435 124.548 17.7675C124.193 17.9821 123.834 18.0895 123.47 18.0895ZM122.994 13.8195C123.05 13.8941 123.078 13.9921 123.078 14.1135C123.078 14.2535 123.05 14.3935 122.994 14.5335C122.947 14.6735 122.896 14.8648 122.84 15.1075C122.784 15.3501 122.756 15.6955 122.756 16.1435C122.756 16.5915 122.933 16.8155 123.288 16.8155C123.68 16.8155 124.044 16.6615 124.38 16.3535C124.716 16.0361 125.014 15.6301 125.276 15.1355C125.537 14.6408 125.738 14.1135 125.878 13.5535C126.027 12.9841 126.102 12.4475 126.102 11.9435C126.102 11.6168 126.041 11.3881 125.92 11.2575C125.798 11.1175 125.579 11.0475 125.262 11.0475C124.935 11.0475 124.594 11.1595 124.24 11.3835C123.894 11.5981 123.605 11.8921 123.372 12.2655C123.138 12.6388 123.022 13.0588 123.022 13.5255C123.022 13.6281 123.012 13.7261 122.994 13.8195ZM130.098 18.3555C129.771 18.3555 129.501 18.2108 129.286 17.9215C129.081 17.6228 128.978 17.0955 128.978 16.3395C128.978 15.5461 128.992 14.7761 129.02 14.0295C129.048 13.2735 129.099 12.5968 129.174 11.9995C129.258 11.4021 129.37 10.9261 129.51 10.5715C129.65 10.2168 129.832 10.0395 130.056 10.0395C130.215 10.0395 130.355 10.1281 130.476 10.3055C130.597 10.4735 130.658 10.6975 130.658 10.9775C130.658 11.2668 130.63 11.6541 130.574 12.1395C130.518 12.6248 130.448 13.1475 130.364 13.7075C130.289 14.2581 130.224 14.7948 130.168 15.3175C130.112 15.8308 130.084 16.2648 130.084 16.6195C130.084 16.7688 130.089 16.8901 130.098 16.9835C130.117 17.0675 130.145 17.1095 130.182 17.1095C130.322 17.1095 130.471 16.9881 130.63 16.7455C130.798 16.4935 130.975 16.1668 131.162 15.7655C131.349 15.3548 131.545 14.9068 131.75 14.4215C131.955 13.9268 132.165 13.4368 132.38 12.9515C132.595 12.4661 132.814 12.0228 133.038 11.6215C133.262 11.2108 133.486 10.8841 133.71 10.6415C133.934 10.3895 134.153 10.2635 134.368 10.2635C134.62 10.2635 134.853 10.3848 135.068 10.6275C135.292 10.8608 135.404 11.1968 135.404 11.6355C135.404 11.7661 135.385 11.9948 135.348 12.3215C135.311 12.6388 135.264 13.0028 135.208 13.4135C135.152 13.8241 135.096 14.2348 135.04 14.6455C134.984 15.0468 134.937 15.4061 134.9 15.7235C134.863 16.0315 134.844 16.2508 134.844 16.3815C134.844 16.8668 134.891 17.1095 134.984 17.1095C135.245 17.1095 135.521 16.9461 135.81 16.6195C136.109 16.2835 136.407 15.8541 136.706 15.3315C137.014 14.7995 137.317 14.2255 137.616 13.6095C137.924 12.9841 138.218 12.3868 138.498 11.8175C138.629 11.5188 138.736 11.3181 138.82 11.2155C138.913 11.1035 139.007 11.0475 139.1 11.0475C139.231 11.0475 139.352 11.1175 139.464 11.2575C139.585 11.3975 139.646 11.5888 139.646 11.8315C139.646 11.9155 139.641 11.9995 139.632 12.0835C139.623 12.1581 139.599 12.2421 139.562 12.3355C139.245 13.1755 138.904 13.9548 138.54 14.6735C138.176 15.3828 137.803 16.0035 137.42 16.5355C137.047 17.0581 136.678 17.4688 136.314 17.7675C135.95 18.0568 135.614 18.2015 135.306 18.2015C134.774 18.2015 134.359 18.0521 134.06 17.7535C133.771 17.4455 133.626 17.0348 133.626 16.5215C133.626 16.3068 133.64 16.0268 133.668 15.6815C133.705 15.3361 133.747 14.9628 133.794 14.5615C133.85 14.1601 133.906 13.7728 133.962 13.3995C134.018 13.0261 134.065 12.6995 134.102 12.4195C134.149 12.1395 134.177 11.9481 134.186 11.8455C134.195 11.7148 134.181 11.6495 134.144 11.6495C134.107 11.6495 134.032 11.7708 133.92 12.0135C133.817 12.2468 133.691 12.5455 133.542 12.9095C133.402 13.2641 133.253 13.6328 133.094 14.0155C132.917 14.4355 132.711 14.8975 132.478 15.4015C132.254 15.8961 132.011 16.3675 131.75 16.8155C131.498 17.2635 131.232 17.6321 130.952 17.9215C130.672 18.2108 130.387 18.3555 130.098 18.3555Z" fill="white"/>
</svg>
